<?xml version="1.0" encoding="UTF-8" standalone="no"?>
<svg
   xmlns:dc="http://purl.org/dc/elements/1.1/"
   xmlns:cc="http://creativecommons.org/ns#"
   xmlns:rdf="http://www.w3.org/1999/02/22-rdf-syntax-ns#"
   xmlns:svg="http://www.w3.org/2000/svg"
   xmlns="http://www.w3.org/2000/svg"
   id="svg1230"
   version="1.1"
   viewBox="0 0 185.125 44.500002"
   height="44.500004mm"
   width="185.125mm">
  <defs
     id="defs1224" />
  <metadata
     id="metadata1227">
    <rdf:RDF>
      <cc:Work
         rdf:about="">
        <dc:format>image/svg+xml</dc:format>
        <dc:type
           rdf:resource="http://purl.org/dc/dcmitype/StillImage" />
        <dc:title></dc:title>
      </cc:Work>
    </rdf:RDF>
  </metadata>
  <g
     transform="translate(20.002756,-132.50014)"
     id="layer1">
    <rect
       ry="5.5491633"
       y="133.00014"
       x="-19.502756"
       height="43.5"
       width="43.5"
       id="rect1232"
       style="fill:none;fill-opacity:0.96862745;stroke:#000500;stroke-width:1;stroke-miterlimit:4;stroke-dasharray:none;stroke-opacity:1" />
    <rect
       ry="5.5491633"
       y="133.00014"
       x="74.247246"
       height="43.5"
       width="43.5"
       id="rect1232-9"
       style="fill:none;fill-opacity:0.96862745;stroke:#000500;stroke-width:1;stroke-miterlimit:4;stroke-dasharray:none;stroke-opacity:1" />
    <path
       id="rect1232-4"
       d="m 126.67151,133.00014 c -3.07423,0 -5.54927,2.47503 -5.54927,5.54926 v 32.40147 c 0,3.07423 2.47504,5.54927 5.54927,5.54927 h 32.40147 c 3.07422,0 5.54926,-2.47504 5.54926,-5.54927 V 138.5494 c 0,-3.07423 -2.47504,-5.54926 -5.54926,-5.54926 z m 21.61877,17.44748 11.70996,19.25566 h -18.96652 -4.45368 -10.8358 l 7.6446,-12.50572 5.41214,8.85342 z"
       style="fill:#000000;fill-opacity:1;stroke:#000500;stroke-width:1;stroke-miterlimit:4;stroke-dasharray:none;stroke-opacity:1" />
    <rect
       ry="5.5491633"
       y="133.00014"
       x="27.372244"
       height="43.5"
       width="43.5"
       id="rect1232-7"
       style="fill:none;fill-opacity:0.96862745;stroke:#000500;stroke-width:1;stroke-miterlimit:4;stroke-dasharray:none;stroke-opacity:1" />
    <g
       style="stroke-width:4.52971125"
       id="g1976"
       transform="matrix(0.05841064,0,0,0.05841064,-12.705886,140.3407)">
      <g
         style="stroke-width:4.52971125"
         id="g1974">
        <path
           style="stroke-width:4.52971125"
           id="path1972"
           d="m 496.063,62.299 -46.396,-46.4 C 428.468,-5.3 393.978,-5.299 372.779,15.899 352.82,35.86 47.964,340.739 27.591,361.113 c -2.17,2.17 -3.624,5.054 -4.142,7.875 L 0.251,494.268 c -0.899,4.857 0.649,9.846 4.142,13.339 3.497,3.497 8.487,5.042 13.338,4.143 L 143,488.549 c 2.895,-0.54 5.741,-2.008 7.875,-4.143 L 496.063,139.192 c 21.248,-21.248 21.251,-55.642 0,-76.893 z M 33.721,478.276 47.754,402.492 109.5,464.242 Z M 140.269,452.585 59.41,371.721 354.62,76.488 435.479,157.353 Z M 474.85,117.979 456.691,136.14 375.832,55.275 393.991,37.114 c 9.501,-9.502 24.96,-9.503 34.463,0 l 46.396,46.4 c 9.525,9.525 9.525,24.939 0,34.465 z" />
      </g>
    </g>
    <path
       id="path2107"
       d="m 65.162874,153.80039 -13.44861,-13.45963 -13.875229,13.8861 -3.342209,3.34489 c -0.909774,0.91074 -1.411044,2.12156 -1.411044,3.40954 0,1.28798 0.50127,2.49881 1.411044,3.40955 l 3.973442,3.97662 h -5.388649 v 1.87955 h 32.055545 v -1.87955 h -14.52971 z m -13.44861,-10.80112 10.79246,10.80112 -11.21884,11.22758 -10.79247,-10.80111 z m -10.58761,25.36819 -5.301512,-5.30575 c -0.555364,-0.55581 -0.861066,-1.2946 -0.861066,-2.08042 0,-0.78582 0.305702,-1.52461 0.861066,-2.08041 l 3.341964,-3.34464 10.792708,10.80111 -2.0085,2.01011 z m 0,0"
       style="stroke-width:0.35277775" />
    <g
       style="stroke-width:4.52681494"
       id="g2246"
       transform="matrix(0.05841596,0,0,0.05848009,81.041376,139.77923)">
      <g
         style="stroke-width:4.52681494"
         id="g2244">
        <path
           style="stroke-width:4.52681494"
           id="path2242"
           d="M 494.412,245.154 371.59,122.507 465.382,28.573 437.07,0.304 343.28,94.237 286.667,37.705 37.714,286.659 245.468,494.118 c 11.699,11.699 27.069,17.549 42.436,17.549 15.367,0 30.735,-5.849 42.436,-17.549 L 494.422,330.036 c 11.389,-11.388 17.632,-26.53 17.578,-42.635 -0.054,-15.955 -6.296,-30.955 -17.588,-42.247 z m -28.281,56.591 -164.083,164.083 c -7.799,7.8 -20.489,7.8 -28.3,-0.01 L 94.314,286.638 286.687,94.266 315.011,122.549 211.272,226.445 239.584,254.714 343.322,150.82 466.133,273.456 c 3.761,3.761 5.842,8.761 5.859,14.079 0.017,5.367 -2.064,10.413 -5.861,14.21 z" />
      </g>
    </g>
    <g
       style="stroke-width:4.53245687"
       id="g2252"
       transform="matrix(0.05834324,0,0,0.05840729,81.044119,139.81649)">
      <g
         style="stroke-width:4.53245687"
         id="g2250">
        <path
           style="stroke-width:4.53245687"
           id="path2248"
           d="M 95.137,398.966 C 84.958,383.768 74.892,371.484 74.468,370.969 L 59.013,352.161 43.558,370.969 c -0.424,0.516 -10.49,12.799 -20.669,27.997 C 2.372,429.596 0,444.293 0,452.684 c 0,32.54 26.474,59.012 59.012,59.012 32.539,0 59.012,-26.473 59.012,-59.012 0.001,-8.391 -2.372,-23.088 -22.887,-53.718 z m -36.125,72.722 c -10.479,0 -19.004,-8.525 -19.005,-18.956 0.004,-0.08 0.526,-8.271 16.291,-31.757 0.907,-1.35 1.813,-2.678 2.714,-3.972 0.899,1.294 1.806,2.622 2.714,3.972 15.491,23.079 16.265,31.388 16.29,31.745 -0.02,10.462 -8.536,18.968 -19.004,18.968 z" />
      </g>
    </g>
    <text
       transform="scale(1.0214771,0.97897451)"
       id="text6203"
       y="130.49413"
       x="-19.566"
       style="font-style:normal;font-variant:normal;font-weight:normal;font-stretch:normal;font-size:16.57730103px;line-height:1.25;font-family:'Love Ya Like A Sister';-inkscape-font-specification:'Love Ya Like A Sister';letter-spacing:0px;word-spacing:0px;fill:#000000;fill-opacity:1;stroke:none;stroke-width:0.26458332"
       xml:space="preserve"><tspan
         style="font-size:22.10306931px;stroke-width:0.26458332"
         y="130.49413"
         x="-19.566"
         id="tspan6201">Tools</tspan></text>
    <flowRoot
       transform="matrix(0.26458333,0,0,0.26458333,0,129.5)"
       style="font-style:normal;font-variant:normal;font-weight:normal;font-stretch:normal;font-size:64px;line-height:1.25;font-family:'Love Ya Like A Sister';-inkscape-font-specification:'Love Ya Like A Sister';letter-spacing:0px;word-spacing:0px;fill:#000000;fill-opacity:1;stroke:none"
       id="flowRoot6205"
       xml:space="preserve"><flowRegion
         id="flowRegion6207"><rect
           y="-134.07199"
           x="-57.142857"
           height="97.14286"
           width="301.42856"
           id="rect6209" /></flowRegion><flowPara
         id="flowPara6211" /></flowRoot>    <flowRoot
       transform="matrix(0.26458333,0,0,0.26458333,-20.002756,110.4754)"
       style="font-style:normal;font-variant:normal;font-weight:normal;font-stretch:normal;font-size:64px;line-height:1.25;font-family:'Love Ya Like A Sister';-inkscape-font-specification:'Love Ya Like A Sister';letter-spacing:0px;word-spacing:0px;fill:#000000;fill-opacity:1;stroke:none"
       id="flowRoot6333"
       xml:space="preserve"><flowRegion
         id="flowRegion6335"><rect
           y="-132.56793"
           x="-214"
           height="590"
           width="1114"
           id="rect6337" /></flowRegion><flowPara
         id="flowPara6339" /></flowRoot>    <flowRoot
       transform="matrix(0.26458333,0,0,0.26458333,-20.002756,110.4754)"
       style="font-style:normal;font-variant:normal;font-weight:normal;font-stretch:normal;font-size:64px;line-height:1.25;font-family:'Love Ya Like A Sister';-inkscape-font-specification:'Love Ya Like A Sister';letter-spacing:0px;word-spacing:0px;fill:#000000;fill-opacity:1;stroke:none"
       id="flowRoot6360"
       xml:space="preserve"><flowRegion
         id="flowRegion6362"><rect
           y="-232.56793"
           x="-134"
           height="574"
           width="904"
           id="rect6364" /></flowRegion><flowPara
         id="flowPara6366" /></flowRoot>    <flowRoot
       transform="matrix(0.26458333,0,0,0.26458333,-20.002756,110.4754)"
       style="font-style:normal;font-variant:normal;font-weight:normal;font-stretch:normal;font-size:64px;line-height:1.25;font-family:'Love Ya Like A Sister';-inkscape-font-specification:'Love Ya Like A Sister';letter-spacing:0px;word-spacing:0px;fill:#000000;fill-opacity:1;stroke:none"
       id="flowRoot6368"
       xml:space="preserve"><flowRegion
         id="flowRegion6370"><rect
           y="-66.567932"
           x="-164"
           height="388"
           width="942"
           id="rect6372" /></flowRegion><flowPara
         id="flowPara6374" /></flowRoot>  </g>
</svg>
